<?xml version="1.0" encoding="UTF-8" standalone="no"?>
<svg
   xmlns:dc="http://purl.org/dc/elements/1.1/"
   xmlns:cc="http://creativecommons.org/ns#"
   xmlns:rdf="http://www.w3.org/1999/02/22-rdf-syntax-ns#"
   xmlns:svg="http://www.w3.org/2000/svg"
   xmlns="http://www.w3.org/2000/svg"
   id="svg8"
   version="1.1"
   viewBox="0 0 507.99999 285.75001"
   height="1080"
   width="1920">
  <defs
     id="defs2" />
  <metadata
     id="metadata5">
    <rdf:RDF>
      <cc:Work
         rdf:about="">
        <dc:format>image/svg+xml</dc:format>
        <dc:type
           rdf:resource="http://purl.org/dc/dcmitype/StillImage" />
        <dc:title></dc:title>
      </cc:Work>
    </rdf:RDF>
  </metadata>
  <g
     transform="translate(0,-11.249983)"
     id="layer1">
    <rect
       style="fill:#191a1a;fill-opacity:1;stroke-width:2.29368973"
       y="11.249992"
       x="1.8165225e-06"
       height="285.75"
       width="508"
       id="rect3713" />
    <rect
       y="407.4931"
       x="11.971376"
       height="54.443329"
       width="59.856884"
       id="rect937"
       style="fill:#252327;fill-opacity:1;stroke:none;stroke-width:0.26458332" />
  </g>
  <g
     style="display:inline"
     id="layer2">
    <rect
       style="fill:#343332;fill-opacity:1;stroke-width:0.26458332"
       y="400.29474"
       x="212.02747"
       height="36.285713"
       width="45.357143"
       id="rect3715" />
    <rect
       style="fill:#191a1a;fill-opacity:1;stroke-width:0.26458332"
       y="396.94858"
       x="299.28442"
       height="38.55357"
       width="48.380955"
       id="rect3717" />
    <path
       id="path4564"
       d="m 149.64221,217.7508 v 40.8215 l 59.85688,-59.85689 -29.92844,-10.89306 z"
       style="fill:#191a1a;fill-opacity:1;stroke:none;stroke-width:0.26458332px;stroke-linecap:butt;stroke-linejoin:miter;stroke-opacity:1" />
    <path
       id="path4566"
       d="m 299.28443,108.93009 v -40.8215 l -59.85689,59.85688 89.78534,32.67918 v -40.8215 z"
       style="fill:#191a1a;fill-opacity:1;stroke:none;stroke-width:0.26458332px;stroke-linecap:butt;stroke-linejoin:miter;stroke-opacity:1" />
    <path
       id="path4568"
       d="m 119.71377,166.03623 29.92845,10.89306 59.85687,-59.85689 -59.85687,-21.786119 v 40.821509 z"
       style="fill:#191a1a;fill-opacity:1;stroke:none;stroke-width:0.26458332px;stroke-linecap:butt;stroke-linejoin:miter;stroke-opacity:1" />
    <path
       id="path4570"
       d="m 0,122.46399 v 81.643 l 149.64222,54.46531 v -81.64301 l -59.8569,-21.78612 v 40.8215 L 29.92844,174.17855 v -40.8215 L 0,122.46399"
       style="fill:#191a1a;fill-opacity:1;stroke:none;stroke-width:0.26458332px;stroke-linecap:butt;stroke-linejoin:miter;stroke-opacity:1" />
    <path
       id="path4564-3"
       d="M 209.4991,76.250912 V 117.07241 L 269.35598,57.215522 239.42754,46.322462 Z"
       style="fill:#191a1a;fill-opacity:1;stroke:none;stroke-width:0.26458332px;stroke-linecap:butt;stroke-linejoin:miter;stroke-opacity:1" />
    <path
       id="path4568-6"
       d="m 209.4991,198.71541 29.92845,10.89307 59.85687,-59.85689 -59.85687,-21.78612 v 40.82151 z"
       style="fill:#191a1a;fill-opacity:1;stroke:none;stroke-width:0.26458332px;stroke-linecap:butt;stroke-linejoin:miter;stroke-opacity:1" />
    <path
       id="path4570-7"
       d="m 299.28442,149.75159 v 81.643 l 149.64222,54.46531 v -81.64301 l -59.8569,-21.78612 v 40.8215 l -59.85688,-21.78612 v -40.8215 l -29.92844,-10.89306"
       style="fill:#191a1a;fill-opacity:1;stroke:none;stroke-width:0.26458332px;stroke-linecap:butt;stroke-linejoin:miter;stroke-opacity:1" />
    <path
       id="path4566-5"
       d="M 89.785332,73.50016 V 32.678663 l -59.85689,59.856877 89.785338,32.67918 v -40.8215 z"
       style="fill:#191a1a;fill-opacity:1;stroke:none;stroke-width:0.26458332px;stroke-linecap:butt;stroke-linejoin:miter;stroke-opacity:1" />
    <path
       id="path4568-6-3"
       d="m 179.57066,310.28687 29.92845,10.89307 59.85687,-59.85689 -59.85687,-21.78612 v 40.82151 z"
       style="fill:#191a1a;fill-opacity:1;stroke:none;stroke-width:0.26458332px;stroke-linecap:butt;stroke-linejoin:miter;stroke-opacity:1" />
    <path
       id="path4568-6-5"
       d="m 448.92664,245.03841 29.92845,10.89307 59.85687,-59.85689 -59.85687,-21.78612 v 40.82151 z"
       style="fill:#191a1a;fill-opacity:1;stroke:none;stroke-width:0.26458332px;stroke-linecap:butt;stroke-linejoin:miter;stroke-opacity:1" />
    <path
       id="path4566-6"
       d="M 448.92663,122.57391 V 81.752409 l -59.85689,59.856881 89.78534,32.67917 v -40.82149 z"
       style="fill:#191a1a;fill-opacity:1;stroke:none;stroke-width:0.26458332px;stroke-linecap:butt;stroke-linejoin:miter;stroke-opacity:1" />
    <path
       id="path4564-3-2"
       d="m 0,285.75 v 40.8215 L 59.85689,266.71461 29.92845,255.82155 Z"
       style="fill:#191a1a;fill-opacity:1;stroke:none;stroke-width:0.26458332px;stroke-linecap:butt;stroke-linejoin:miter;stroke-opacity:1" />
    <path
       id="path4564-3-9"
       d="M 418.99819,70.859332 V 111.68083 L 478.85507,51.823945 448.92663,40.930885 Z"
       style="fill:#191a1a;fill-opacity:1;stroke:none;stroke-width:0.26458332px;stroke-linecap:butt;stroke-linejoin:miter;stroke-opacity:1" />
    <path
       id="path4568-6-1"
       d="M 329.21286,119.82314 359.14131,130.71621 418.99819,70.85932 359.14131,49.0732 V 89.89471 Z"
       style="fill:#191a1a;fill-opacity:1;stroke:none;stroke-width:0.26458332px;stroke-linecap:butt;stroke-linejoin:miter;stroke-opacity:1" />
    <path
       id="path4564-3-9-2"
       d="m 299.28442,27.287086 v 40.8215 L 359.1413,8.2516999 329.21286,-2.6413601 Z"
       style="fill:#191a1a;fill-opacity:1;stroke:none;stroke-width:0.26458332px;stroke-linecap:butt;stroke-linejoin:miter;stroke-opacity:1" />
    <path
       id="path4566-5-7"
       d="m 179.57065,24.536344 v -40.821493 l -59.85689,59.856873 89.78534,32.67918 v -40.82149 z"
       style="fill:#191a1a;fill-opacity:1;stroke:none;stroke-width:0.26458332px;stroke-linecap:butt;stroke-linejoin:miter;stroke-opacity:1" />
    <path
       id="path4568-6-0"
       d="m 239.42753,46.322454 29.92845,10.89307 59.85687,-59.85689 -59.85687,-21.78612 v 40.8215 z"
       style="fill:#191a1a;fill-opacity:1;stroke:none;stroke-width:0.26458332px;stroke-linecap:butt;stroke-linejoin:miter;stroke-opacity:1" />
    <path
       id="path4570-7-9"
       d="M -89.78533,-73.501212 V 8.1417885 L 59.85689,62.607098 v -81.64301 L 0,-40.822032 V -5.315e-4 L -59.85688,-21.786652 v -40.8215 l -29.92845,-10.89306"
       style="fill:#191a1a;fill-opacity:1;stroke:none;stroke-width:0.26458332px;stroke-linecap:butt;stroke-linejoin:miter;stroke-opacity:1" />
    <path
       id="path4566-5-7-6"
       d="M 508.78352,21.895507 V -18.925987 L 448.92663,40.930886 538.71197,73.61007 V 32.788577 Z"
       style="fill:#191a1a;fill-opacity:1;stroke:none;stroke-width:0.26458332px;stroke-linecap:butt;stroke-linejoin:miter;stroke-opacity:1" />
    <path
       id="path4564-3-2-0"
       d="m 389.06975,-21.676741 v 40.8215 l 59.8569,-59.85689 -29.92845,-10.89306 z"
       style="fill:#191a1a;fill-opacity:1;stroke:none;stroke-width:0.26458332px;stroke-linecap:butt;stroke-linejoin:miter;stroke-opacity:1" />
  </g>
</svg>
